<?xml version="1.0" standalone="no"?>
<!DOCTYPE svg PUBLIC "-//W3C//DTD SVG 20010904//EN"
 "http://www.w3.org/TR/2001/REC-SVG-20010904/DTD/svg10.dtd">
<svg version="1.0" xmlns="http://www.w3.org/2000/svg"
 width="2134.000000pt" height="2134.000000pt" viewBox="0 0 2134.000000 2134.000000"
 preserveAspectRatio="xMidYMid meet">
<metadata>
Created by potrace 1.14, written by Peter Selinger 2001-2017
</metadata>
<g transform="translate(0.000000,2134.000000) scale(0.100000,-0.100000)"
fill="#000000" stroke="none">
<path d="M10368 19265 c-2 -2 -59 -6 -128 -9 -69 -4 -145 -9 -170 -11 -25 -3
-76 -7 -115 -10 -93 -6 -255 -24 -330 -35 -33 -5 -80 -11 -105 -14 -25 -3 -56
-8 -70 -10 -14 -3 -56 -9 -95 -15 -38 -6 -81 -13 -95 -16 -14 -3 -41 -8 -60
-11 -19 -3 -80 -15 -135 -26 -55 -11 -109 -21 -120 -24 -11 -2 -33 -6 -50 -10
-16 -3 -93 -22 -170 -41 -153 -38 -167 -41 -192 -47 -205 -47 -564 -160 -826
-260 -587 -223 -1104 -491 -1647 -851 -312 -207 -734 -529 -860 -655 -25 -25
-73 -67 -105 -93 -118 -96 -213 -185 -400 -372 -210 -209 -331 -339 -440 -470
-22 -27 -45 -53 -50 -59 -8 -9 -99 -120 -168 -206 -185 -231 -444 -601 -622
-890 -32 -52 -68 -111 -80 -130 -104 -166 -319 -578 -422 -807 -156 -346 -347
-885 -439 -1238 -4 -16 -8 -32 -9 -35 -1 -3 -7 -23 -13 -45 -13 -43 -117 -510
-126 -560 -2 -16 -16 -96 -30 -177 -14 -81 -28 -173 -32 -205 -3 -32 -7 -60
-9 -63 -2 -3 -6 -34 -10 -70 -3 -36 -8 -72 -10 -80 -2 -8 -7 -52 -10 -97 -3
-45 -8 -90 -10 -101 -2 -10 -6 -61 -10 -113 -4 -52 -8 -107 -10 -123 -9 -67
-18 -399 -18 -616 -1 -339 18 -707 48 -940 2 -19 7 -60 10 -90 4 -30 8 -66 10
-80 2 -14 7 -45 10 -70 3 -25 10 -70 15 -100 5 -30 12 -73 16 -95 3 -22 21
-119 41 -215 19 -96 37 -186 39 -200 3 -14 27 -113 55 -220 27 -107 51 -203
54 -214 32 -135 203 -655 250 -761 7 -16 27 -66 44 -111 48 -129 162 -385 254
-574 99 -202 184 -361 312 -579 180 -306 508 -766 741 -1041 77 -90 220 -257
229 -266 5 -6 48 -54 95 -105 107 -119 488 -499 600 -601 342 -307 672 -564
1018 -791 156 -103 406 -257 417 -257 3 0 22 -11 43 -24 31 -19 177 -97 340
-180 l33 -17 -23 -18 c-23 -18 -290 -151 -302 -151 -4 0 -89 -40 -189 -90
-208 -102 -329 -186 -394 -275 -138 -185 -46 -309 362 -490 129 -57 456 -173
566 -200 32 -8 85 -22 118 -30 32 -8 118 -25 192 -39 74 -13 188 -36 254 -51
223 -48 540 -109 625 -120 25 -3 56 -8 70 -10 43 -8 83 -13 140 -20 30 -3 66
-8 80 -10 24 -4 94 -12 185 -21 42 -3 136 -10 290 -19 50 -3 106 -7 125 -10
53 -7 165 -18 325 -30 39 -3 93 -7 120 -10 514 -45 1492 -50 2340 -11 307 14
495 25 530 32 10 2 37 6 59 10 22 3 44 8 48 10 4 3 56 7 115 9 159 6 326 19
413 30 19 3 53 7 75 10 47 5 89 11 210 30 159 26 257 44 465 85 80 16 156 32
170 34 14 3 36 7 50 10 14 3 45 8 70 12 25 3 63 7 85 10 191 23 505 101 705
174 47 17 90 32 95 34 42 13 167 67 294 128 168 79 239 131 309 223 15 20 29
82 26 114 -5 43 -27 84 -68 123 -135 131 -175 156 -531 333 -137 68 -279 142
-314 165 l-64 42 79 40 c394 199 826 473 1229 778 71 53 309 246 336 271 8 8
46 41 84 74 204 174 495 460 715 701 523 574 1020 1301 1342 1963 95 196 158
330 158 336 0 2 11 28 24 57 80 177 211 518 223 582 3 17 32 110 63 206 49
148 110 352 125 417 2 10 12 47 20 83 9 36 18 72 20 80 1 8 8 33 14 55 5 22
12 54 15 70 3 17 14 73 25 125 11 52 22 111 25 131 3 20 7 42 10 50 3 8 7 32
10 54 3 22 12 83 20 135 14 90 23 157 31 225 19 172 22 204 30 300 3 44 8 105
10 135 3 30 7 98 10 151 3 53 7 111 10 130 22 184 22 855 0 1074 -2 22 -7 76
-10 120 -3 44 -8 91 -10 105 -2 14 -6 54 -9 90 -4 36 -8 75 -10 85 -2 11 -7
47 -10 80 -4 33 -11 85 -16 115 -16 93 -31 184 -35 210 -2 14 -9 50 -15 80 -6
30 -13 71 -16 90 -13 81 -100 453 -128 545 -2 6 -6 24 -11 40 -137 528 -400
1192 -685 1730 -198 375 -503 857 -710 1126 -19 25 -44 58 -55 73 -11 16 -24
33 -30 40 -5 6 -46 56 -90 111 -43 55 -85 106 -92 113 -7 8 -27 35 -45 60 -17
26 -35 49 -38 52 -4 3 -28 30 -55 60 -432 494 -855 891 -1395 1313 -42 33
-245 181 -320 233 -502 352 -1046 641 -1630 869 -284 111 -796 271 -990 311
-14 2 -38 9 -55 14 -16 5 -41 11 -55 14 -14 2 -56 11 -95 20 -67 15 -84 18
-150 31 -16 3 -50 10 -75 15 -57 12 -94 19 -149 26 -25 3 -48 7 -51 9 -3 2
-33 7 -65 10 -33 4 -62 9 -65 10 -3 2 -30 6 -60 10 -30 3 -66 8 -80 10 -14 2
-47 7 -75 10 -27 3 -66 7 -85 10 -19 2 -64 7 -100 10 -36 3 -78 8 -95 10 -16
2 -73 6 -125 10 -52 3 -122 9 -155 11 -63 5 -792 13 -797 9z m3907 -2527 c14
-17 24 -33 21 -35 -2 -3 -38 18 -80 46 -69 47 -86 67 -70 84 8 8 98 -58 129
-95z m310 -239 c77 -62 153 -125 169 -139 91 -78 274 -242 337 -301 25 -24 83
-78 130 -119 142 -126 317 -297 456 -446 76 -83 232 -265 292 -344 143 -185
224 -297 318 -440 34 -52 66 -100 71 -105 5 -6 11 -15 13 -20 2 -6 43 -75 90
-155 263 -444 452 -868 627 -1410 26 -79 83 -277 88 -305 2 -11 15 -63 29
-115 14 -52 27 -102 29 -110 2 -8 20 -78 39 -155 20 -77 38 -153 40 -170 3
-16 15 -76 26 -133 11 -56 23 -117 26 -135 3 -17 7 -43 10 -57 3 -14 7 -40 10
-57 3 -18 7 -45 9 -60 3 -16 7 -50 11 -78 3 -27 7 -61 9 -75 5 -25 11 -86 21
-195 4 -33 8 -76 10 -95 23 -202 23 -753 0 -975 -1 -16 -6 -61 -9 -100 -4 -38
-9 -81 -11 -95 -2 -14 -7 -50 -10 -80 -7 -59 -10 -83 -25 -170 -5 -30 -12 -73
-15 -95 -3 -23 -7 -52 -10 -65 -3 -14 -8 -41 -11 -60 -4 -19 -17 -84 -31 -145
-13 -60 -26 -121 -29 -134 -31 -156 -212 -741 -270 -877 -10 -21 -19 -43 -20
-49 -2 -10 -99 -241 -136 -325 -69 -155 -226 -460 -348 -675 -76 -134 -379
-596 -410 -625 -3 -3 -24 -30 -45 -60 -39 -53 -238 -304 -259 -326 -6 -6 -38
-42 -71 -80 -95 -111 -471 -482 -586 -579 -167 -143 -193 -164 -350 -282 -514
-387 -1084 -689 -1694 -899 -97 -34 -385 -118 -435 -128 -14 -3 -95 -21 -180
-40 -137 -31 -392 -79 -490 -91 -19 -3 -46 -7 -60 -9 -14 -3 -50 -8 -80 -11
-30 -3 -71 -8 -90 -10 -19 -2 -64 -7 -100 -10 -36 -3 -78 -7 -95 -9 -207 -27
-946 -27 -1175 -1 -19 2 -69 7 -110 10 -41 4 -86 8 -100 10 -14 2 -79 11 -145
20 -66 8 -131 17 -145 20 -14 2 -77 13 -140 24 -63 11 -124 22 -135 25 -203
42 -282 61 -500 120 -492 134 -1055 376 -1505 648 -243 147 -556 362 -695 478
-17 14 -51 41 -75 60 -197 156 -573 517 -740 710 -41 47 -79 90 -84 96 -106
112 -445 574 -541 736 -5 9 -52 87 -103 172 -91 152 -261 478 -317 606 -15 36
-39 90 -52 120 -14 30 -38 89 -54 130 -16 41 -34 84 -39 95 -33 72 -130 364
-179 540 -17 61 -38 133 -46 160 -8 28 -16 61 -19 75 -2 14 -13 63 -24 110
-23 97 -59 277 -67 335 -10 67 -14 99 -19 130 -3 17 -8 53 -11 80 -4 28 -8 61
-10 75 -34 238 -48 669 -31 990 4 80 9 161 11 180 3 19 7 60 10 90 4 30 8 69
11 85 2 17 6 48 9 70 3 22 8 60 11 85 6 39 68 349 78 390 3 8 9 35 15 60 6 25
22 86 36 135 14 50 27 97 30 105 10 44 112 338 147 425 97 245 250 568 334
706 19 31 34 59 34 62 0 20 264 426 372 572 37 49 75 101 85 114 10 13 23 29
28 35 6 6 37 45 70 86 196 246 488 538 792 791 319 266 868 603 1233 758 30
13 78 34 105 46 277 125 799 273 1125 320 24 4 47 8 50 10 3 1 28 6 55 9 28 4
86 13 130 21 77 13 94 16 195 30 25 3 56 8 70 10 14 2 52 7 85 10 33 3 67 8
75 10 8 2 49 7 90 10 41 3 86 8 100 10 110 17 592 25 740 12 158 -14 196 -19
230 -27 34 -8 34 -8 -15 -10 -57 -2 -123 -6 -250 -15 -90 -6 -129 -10 -240
-20 -33 -3 -85 -8 -115 -11 -30 -2 -71 -6 -90 -9 -94 -11 -147 -18 -165 -21
-11 -3 -40 -7 -65 -10 -66 -7 -199 -32 -325 -61 -60 -13 -121 -27 -134 -29
-221 -44 -603 -185 -881 -324 -291 -145 -648 -381 -865 -571 -359 -314 -640
-630 -869 -977 -234 -356 -453 -804 -609 -1248 -48 -134 -142 -456 -162 -554
-2 -8 -11 -46 -20 -85 -20 -86 -32 -146 -50 -257 -3 -18 -8 -45 -10 -59 -6
-36 -12 -83 -20 -164 -4 -38 -8 -81 -10 -95 -21 -140 -21 -723 -1 -850 3 -14
7 -56 11 -95 3 -38 8 -81 10 -95 2 -14 7 -42 10 -62 3 -21 7 -55 10 -75 69
-472 268 -1058 502 -1473 11 -19 35 -62 53 -95 33 -60 158 -258 193 -305 230
-312 335 -435 547 -643 135 -132 321 -296 429 -377 18 -14 38 -30 44 -35 28
-25 219 -157 296 -205 323 -200 666 -343 1076 -449 94 -24 308 -67 380 -76 28
-4 61 -8 75 -11 14 -2 52 -6 85 -10 33 -3 71 -7 84 -9 148 -25 711 -25 896 0
17 2 55 6 85 9 85 9 137 16 235 33 50 8 104 17 120 20 17 2 34 8 38 12 5 5 10
89 12 187 5 258 -13 358 -79 426 -42 43 -128 102 -241 163 -230 125 -332 259
-380 505 -11 53 -5 189 10 265 36 172 111 322 222 438 60 64 100 124 118 176
28 86 33 114 39 261 3 63 8 162 11 220 4 58 8 152 10 210 8 199 15 390 20 472
7 136 16 308 20 383 3 39 7 124 10 190 3 66 7 149 10 185 2 36 7 130 10 210 4
80 9 188 11 240 3 52 6 305 8 562 l4 468 -60 67 c-158 178 -293 367 -370 518
-42 82 -101 235 -112 288 -3 12 -10 47 -16 77 -14 70 -24 192 -24 295 0 78 12
244 19 255 2 3 6 22 9 42 17 107 60 250 122 406 46 118 194 422 253 520 17 29
31 57 31 62 0 6 5 10 10 10 6 0 10 6 10 13 1 6 27 57 60 112 l60 100 -8 -105
c-12 -181 -7 -416 12 -530 35 -208 124 -419 261 -616 157 -225 463 -559 765
-836 66 -59 116 -114 132 -145 96 -178 68 -402 -67 -536 -83 -82 -194 -114
-355 -104 -101 6 -173 23 -331 77 -62 21 -115 37 -117 35 -6 -5 -4 -421 3
-640 7 -264 14 -483 20 -630 3 -71 7 -188 10 -260 2 -71 7 -188 10 -260 9
-189 14 -319 20 -505 4 -91 8 -212 10 -270 2 -58 6 -247 10 -420 6 -365 8
-385 44 -465 50 -110 168 -205 404 -328 60 -31 121 -66 137 -77 15 -11 31 -20
35 -20 21 0 127 -116 160 -175 27 -48 69 -161 64 -173 -1 -2 11 -135 17 -192
4 -32 8 -194 19 -740 2 -118 4 -216 4 -217 3 -13 270 81 501 177 227 94 583
275 797 404 660 398 1181 884 1727 1611 87 116 163 215 168 220 18 17 -170
-340 -253 -483 -43 -74 -79 -138 -79 -143 0 -4 -4 -9 -8 -11 -4 -1 -26 -32
-47 -68 -120 -199 -390 -562 -549 -740 -75 -83 -350 -355 -421 -415 -38 -33
-76 -66 -84 -73 -43 -41 -285 -222 -401 -300 -74 -51 -139 -95 -145 -99 -15
-12 -154 -94 -205 -122 -25 -13 -53 -30 -62 -39 -10 -8 -18 -12 -18 -8 0 3
-18 -5 -40 -19 -115 -73 -509 -253 -752 -344 -182 -69 -528 -178 -615 -196
-10 -1 -47 -11 -83 -20 -66 -17 -82 -21 -122 -30 -13 -2 -36 -7 -51 -11 -16
-3 -38 -7 -50 -9 -53 -7 -103 -16 -116 -21 -8 -2 -30 -7 -50 -10 -20 -2 -79
-11 -131 -19 -52 -7 -117 -16 -145 -20 -27 -3 -63 -8 -80 -10 -66 -10 -343
-33 -490 -41 -85 -4 -574 -4 -630 0 -22 2 -95 6 -162 10 -67 4 -130 9 -140 10
-10 2 -56 7 -103 11 -47 4 -88 9 -91 10 -3 2 -31 6 -64 10 -32 3 -70 7 -84 9
-14 3 -46 8 -71 11 -25 4 -54 9 -65 12 -11 2 -33 6 -50 8 -16 3 -41 7 -55 10
-14 3 -41 8 -60 11 -19 3 -51 9 -70 14 -19 5 -48 11 -65 14 -117 21 -515 129
-700 191 -172 58 -529 191 -640 240 -16 7 -102 42 -190 78 -88 36 -182 75
-209 86 -27 12 -51 20 -53 17 -11 -10 242 -176 427 -280 329 -185 799 -364
1200 -456 19 -4 78 -17 130 -29 52 -13 118 -27 145 -32 28 -5 61 -11 75 -14
73 -15 190 -35 225 -40 22 -3 63 -10 90 -15 28 -5 72 -12 98 -15 27 -4 56 -8
65 -9 10 -2 44 -7 77 -11 32 -4 66 -8 75 -10 8 -1 47 -6 85 -9 39 -4 77 -9 85
-11 8 -2 49 -6 90 -10 41 -3 86 -7 99 -10 14 -2 66 -7 115 -11 98 -7 123 -13
60 -15 -21 -1 -55 -3 -74 -4 -39 -4 -257 -15 -395 -20 -133 -6 -517 -6 -615 0
-149 8 -297 20 -372 30 -21 3 -57 7 -80 10 -163 21 -415 73 -493 100 -11 4 -4
-4 16 -18 49 -35 342 -177 459 -222 271 -106 407 -146 750 -221 43 -10 53 -12
135 -24 44 -7 88 -14 99 -16 10 -2 44 -6 75 -9 31 -4 67 -8 81 -11 148 -24
792 -24 920 1 8 2 44 6 80 9 36 4 76 9 90 11 14 3 39 7 55 9 88 14 228 39 290
52 39 9 81 18 95 20 14 3 53 11 86 19 34 8 73 17 85 19 13 3 44 10 69 17 25 6
52 12 60 14 125 26 518 144 740 222 475 166 891 356 1335 611 141 81 170 99
380 237 359 237 757 555 1174 940 221 204 598 603 736 780 17 21 35 43 40 49
6 6 26 31 45 56 19 25 37 47 40 50 14 13 184 245 237 325 277 413 493 964 582
1485 6 36 13 74 15 85 3 19 12 82 22 155 3 19 7 46 9 60 2 14 7 61 11 105 3
44 8 88 10 97 5 32 17 350 16 483 0 121 -9 350 -17 455 -2 25 -6 77 -10 115
-3 39 -7 86 -10 105 -3 19 -7 62 -11 95 -3 33 -15 119 -26 190 -10 72 -21 141
-23 155 -9 58 -39 220 -50 270 -3 14 -8 36 -10 50 -5 33 -52 238 -71 309 -8
31 -17 65 -19 76 -12 55 -89 301 -96 310 -5 5 -9 16 -9 24 0 31 -105 303 -181
469 -16 35 -29 66 -29 68 0 26 -252 495 -322 598 -326 486 -651 944 -720 1017
-7 8 -40 46 -73 84 -148 171 -614 642 -738 745 -36 30 -66 57 -66 60 -1 3 7
16 16 27 15 18 20 20 33 9 8 -7 78 -64 155 -127z"/>
</g>
</svg>
